<?xml version="1.0" encoding="utf-8"?>
<!-- Generator: Adobe Illustrator 16.0.0, SVG Export Plug-In . SVG Version: 6.00 Build 0)  -->
<!DOCTYPE svg PUBLIC "-//W3C//DTD SVG 1.1//EN" "http://www.w3.org/Graphics/SVG/1.1/DTD/svg11.dtd">
<svg version="1.1" id="Capa_1" xmlns="http://www.w3.org/2000/svg" xmlns:xlink="http://www.w3.org/1999/xlink" x="0px" y="0px"
	 width="538.58px" height="623.62px" viewBox="0 0 538.58 623.62" enable-background="new 0 0 538.58 623.62" xml:space="preserve">
<radialGradient id="SVGID_1_" cx="276.1455" cy="311.8105" r="263.1763" gradientUnits="userSpaceOnUse">
	<stop  offset="0" style="stop-color:#EBC226"/>
	<stop  offset="0.7719" style="stop-color:#E3AC34"/>
	<stop  offset="1" style="stop-color:#D68735"/>
</radialGradient>
<path fill="url(#SVGID_1_)" d="M341.366,415.192v-1.561v-1.085V411.1v-0.994v-0.995v-0.903v-1.267v-1.175V404.5v-1.538v-0.994
	v-1.266v-1.81v-1.085v-1.447v-1.989v-2.441v-1.718v-1.266v-1.085v-1.356v-1.628v-1.175v-1.176v-1.085v-0.814v-1.084v-1.267v-1.175
	v-1.086v-1.176v-0.723v-1.085v-1.176v-1.175v-1.629v-1.356v-1.085v-1.446v-1.267v-1.356v-1.084v-0.996v-0.903v-0.994v-1.086v-1.085
	v-1.537v-1.627v-0.905v-1.356v-0.994v-0.814v-0.994v-0.813v-1.176v-0.904v-0.813v-1.266v-0.904v-1.267v-1.175v-1.356v-1.356v-1.176
	v-1.085v-0.995v-1.356v-1.085v-1.356v-0.542v-1.266v-1.356v-0.543v-1.085v-1.898v-1.538v-1.084v-0.995v-0.723v-1.086v-1.447v-1.447
	v-1.446v-1.085v-1.628v-1.356v-1.65v-2.41v-0.965v-1.447v-1.326v-1.325v-1.327v-1.307v-1.205v-1.688v-1.086v-1.326v-1.205v-1.326
	v-1.327v-1.206l0.302-1.251l0.362-0.904l1.205-0.905l1.266-1.808l0.604-0.482l0.662-0.844l1.026-1.085l0.602-0.845l0.724-0.843
	l0.665-0.362l0.903-0.844l0.542-0.664l0.602-0.603l0.544-0.43l0.663-0.783l0.422-0.542l0.542-0.604l0.483-0.603l0.663-0.603
	l0.662-0.301l1.086-0.362l1.867-0.878l2.411-0.844l2.051-0.603l2.17-0.603h1.929h1.447h1.326h1.928h1.447h1.205h1.447h1.568h1.566
	h1.566h1.569h1.566h1.085h1.206h1.688h1.204h1.447h1.447h1.206h1.325h0.966h1.204h1.447h1.084h0.724h1.085h1.207h0.724h0.724h1.205
	h1.205h0.845h0.724h0.724h0.724h1.204h1.81h1.204h2.773h1.447h3.616h1.81h2.532h1.989h1.627h0.724h1.266h2.351h1.267h1.628h1.627
	h0.905h1.445h2.532h1.989h2.352h1.988h2.171h1.627h1.989h1.629h1.266h2.351h1.989h2.895h2.712h2.171h1.989h1.989h1.809h1.266h1.627
	h1.81h1.085h1.627h1.086h1.627h1.447h2.893h2.171h1.627h1.628h2.17h2.171h1.266h2.171h1.085h2.531h1.627h1.447l1.266-0.423
	l1.538-0.723l1.266-0.633l0.543-0.543l1.084-0.633l1.176-0.542l0.995-0.452l0.903-0.723l1.447-0.995l1.176-0.814l0.633-0.542
	l0.904-0.633l1.085-0.724l1.266-0.724l1.085-0.723l1.356-0.633l0.724-0.814l0.995-0.542l0.994-0.813l0.814-0.633l1.266-0.814
	l1.085-0.813l0.995-0.633l0.543-0.724l0.813-0.904l0.724-0.905l0.724-1.175l0.453-1.084l0.542-0.904l0.452-0.814l0.542-0.814v-0.995
	v-0.995v-0.724v-1.085v-0.904v-0.904v-0.813v-0.814v-0.995v-0.995v-0.633v-0.633v-0.994l-0.633-0.995l-0.814-0.995l-0.633-1.176
	l-0.782-2.29l-0.12-0.604l-0.483-2.05l-0.723-1.929l-0.724-2.408l-0.241-1.447l-0.844-1.808l-0.724-1.567l-0.361-1.085l-0.724-1.688
	l-0.481-2.05l-0.966-1.688l-0.964-2.05l-0.844-2.291l-0.845-1.688l-0.843-3.857l-0.966-2.049l-0.603-2.653l-0.843-2.049
	l-0.845-2.291l-0.483-3.135l-0.723-1.929l-1.205-2.876l-1.327-2.412l-1.928-4.718l-0.724-1.688l-2.171-2.411l-0.965-4.099
	l-0.481-1.93l-0.723-1.928l-0.724-1.929l-0.242-1.206l-0.481-1.447l-0.482-1.688l-0.965-1.688l-0.482-1.206l-0.482-1.688
	l-0.239-1.688l-0.483-1.688l-0.482-1.206l-0.481-1.688l-0.483-1.688c0,0-0.481-1.688-0.481-2.412s0-1.205,0-1.929
	s-0.966-2.412-0.966-2.412v-1.206l-0.964-1.688l-0.482-2.17l-1.446-5.787l-0.964-5.064l-1.688-2.411v-2.894l-2.17-5.063
	l-1.929-4.099l-0.724-2.652l-0.724-1.206l-1.931-2.894l-1.687-2.889l-1.446-2.895l-0.483-2.893l-0.24-3.376v-3.617v-3.857
	l0.481-2.653v-1.446v-2.17l1.688-2.17l1.929-1.93l1.447-1.205h1.929l0.724-0.965l2.652-1.446l4.34-1.688h2.411l3.135-1.206h2.412
	h5.546h2.169h1.93h2.412h1.447h1.688v-1.447l-1.207-2.411l-1.204-1.446l-0.724-1.206l-1.206-1.929l-0.482-2.648l-0.964-1.929h-0.966
	l-1.928-2.17l-2.172-0.977h-2.412h-4.34h-2.894H502.2h-1.688h-3.136h-4.341h-4.099h-3.858h-5.305h-4.1h-3.134h-2.653
	c0,0-1.687-0.241-2.651,0c-0.965,0.241-3.859-0.107-3.859-0.107h-4.34l-5.787,1.072l-2.651-1.072h-3.618h-3.858h-4.099h-3.136
	l-4.821,1.072l-4.822-1.072h-5.787h-3.377h-4.34h-2.894l-2.894,1.795c-1.447,0.723-4.099,1.688-4.099,1.688l-2.412,2.652
	l-2.171,2.894l-1.204,1.447l-1.205,3.858l-0.724,1.688l-1.447,3.858v2.652v3.376l1.205,3.134l0.724,2.411l0.242,2.653l1.928,3.134
	c0,0,0.481,1.447,0.724,2.17c0.241,0.723,2.412,3.858,2.412,3.858l2.171,3.617l0.48,3.617l1.205,4.099l0.483,2.17l1.929,3.859
	l0.242,2.17l1.447,4.099l2.169,3.854l1.206,3.858l1.928,3.135l1.447,3.134v3.376l0.724,3.376l2.17,5.305l0.964,2.17l0.724,2.652
	c0,0-0.241,2.17,0.482,3.617c0.724,1.446,0.966,2.652,1.93,3.857c0.964,1.206,1.207,2.653,1.447,3.617
	c0.239,0.964,0.239,2.17,0.239,2.17s0.482,1.689,0.724,2.653c0.243,0.964,1.688,3.375,1.688,3.375s0.24-1.205,0.482,0.965
	c0.241,2.17,0.724,3.375,0.724,3.375s0.482,1.206,0.965,2.412c0.481,1.205,0.481,1.205,0.481,1.205s0,1.688,0,2.652
	c0,0.964,0.002,1.447,0.483,2.17c0.482,0.724,1.445,1.689,1.687,2.653c0.242,0.964-0.721,0,0.483,2.17
	c1.205,2.17,1.205,2.17,1.205,2.17s0.725,0.964,0.966,1.688c0.24,0.723,0.964,1.688,0.964,2.411c0,0.724,0-2.652,0,0.724
	c0,3.376,0,1.688,0,3.376c0,1.688-0.483-0.242,0,3.134c0.482,3.375,0.482,0.723,0.482,3.375c0,2.653,0,0.965,0,2.653
	c0,1.688-0.482,3.617-0.482,3.617s-0.964-0.242-1.688,0.964c-0.724,1.206-0.482,1.929-1.447,2.894
	c-0.965,0.964-1.687,0.964-2.17,1.688s-1.688,1.206-2.17,1.929c-0.483,0.724-2.411,1.93-2.411,1.93l-2.171,0.964
	c0,0,0.241,0.241-1.205,0.724c-1.447,0.482-1.929-0.241-2.894,0.482s-2.895,1.447-2.895,1.447c-2.412,0.481-5.304-0.724-7.232-0.724
	c-1.931,0-7.477,0-7.477,0s-1.205,0-1.929,0s-3.616,0.241-3.616,0.241s-1.93,0-2.895,0c-0.964,0-4.34,0-4.34,0l-0.965,0.241h-3.858
	l-3.375-0.481l-2.895-0.242h-5.063l-5.787,0.242h-3.375h-4.582l-3.376-0.724l-3.135-0.482h-2.412l-2.893-0.724l-3.375-1.446
	l-3.618-1.447l-1.447-1.206l-2.411-1.688l-1.446-0.964l-1.93-1.929v-0.724c0,0-1.204-0.965-2.169-1.93
	c-0.966-0.964-2.172-2.893-2.412-3.616c-0.24-0.724,0-2.894,0-2.894l-0.107-3.617l-1.579-3.135v-4.34v-6.028l-1.207-3.617v-4.341
	v-1.446v-3.854v-3.376v-3.617v-1.447v-2.653c0,0-0.965-1.687,0-1.928c0.965-0.242,2.895-0.724,2.895-0.724l1.688-4.34l0.965-2.17
	v-1.206l0.965-1.929v-1.928l-0.241-2.171c0,0,0.24-1.688-0.241-2.412c-0.482-0.723-0.482-0.723-0.482-0.723l-0.481-1.688v-1.929
	l-0.242-1.447l-0.481-2.17l0.24-1.205l0.965-2.17l0.965-1.447l0.482-0.965l2.651-1.205l2.895-0.724l1.205-0.482h3.135l2.411-0.482
	l1.447-0.241h3.616h1.688l1.206-0.482l1.446-0.482l2.411-0.724l0.241-1.447l0.241-1.929l-0.965-1.688l-1.929-2.412
	c-1.205-0.965-1.205-0.965-1.205-0.965s-0.965-1.446-1.688-1.446s-1.928-0.241-1.928-0.241l-3.136-0.482l-3.375,0.964h-1.688h-2.652
	h-2.412l-1.446-0.723c0,0,0-1.206-0.724-1.206c-0.723,0-2.17-1.447-2.17-1.447l-1.205-1.688v-1.447
	c-1.207-0.964-3.135-0.964-3.135-0.964c-1.447-0.482-2.359-0.482-2.359-0.482h-2.224h-1.204l-1.206-0.723v-0.964v-0.964
	l-1.206-0.965v-1.688l-1.447-0.482l-3.375-0.482h-2.895c0,0-1.204-0.482-2.893,0s-1.688,0.482-1.688,0.482h-4.581l-3.616-0.482
	l-1.931,0.482l-1.687-1.206l-1.206-2.653v-1.929v-1.929v-1.93v-1.446c0,0,1.204-1.206,0-1.206c-1.206,0-1.688-0.724-2.411-0.724
	s-0.724,0-0.724,0l-1.931-0.964l-2.651-1.206l-1.928,0.482l-1.207,0.724v1.206l-1.446,1.929v1.929v1.447v0.964v0.965h-3.921
	l-1.384,0.241v1.206v1.928v1.447c0,0,0.964,0.482,0,1.206c-0.965,0.724,0,2.17,0,2.17l-0.43,1.206v0.965v1.688
	c0,0,0.053,0.482,0,1.447s0,2.17,0,2.17l-0.022,0.965v0.964c0,0,0.271,0.483,0,1.206c-0.271,0.724-0.271,0.724-0.271,0.724v1.447
	l0.965,1.446c0,0,0.355,0.242,1.143,0.724c0.785,0.482,0.785,0.482,0.785,0.482l1.688,1.688l0.724,2.894c0,0,0,0.482,0,1.206
	s-0.24,3.376-0.24,3.376v2.893v3.376l-0.242,2.894l0.242,4.099v4.823v2.17v4.581v3.617v3.376v2.532l0.24,1.929v2.05v1.929
	c0,0,0.119,0.121,0,1.446c-0.12,1.327-0.12,1.327-0.12,1.327l-0.12,2.532l0.12,2.151l-0.241,1.688v1.809l0.603,2.411v2.17
	c0,0-0.724,1.929-0.724,2.532s0.482,3.134,0.482,3.134l0.122,2.05l-0.242,2.411v2.411l0.12,2.652l-0.12,3.497l-0.12,2.291
	l0.24,2.532l-0.12,2.17l0.12,1.808v1.326v1.447l0.122,1.327l-0.122,0.965L280,213.593c0,0-0.483,0.241-0.846,0.241
	c-0.361,0-2.41,0-2.41,0c-0.965,0-0.965,0-0.965,0h-2.29h-1.447h-1.087h-1.807h-0.844l-0.602-0.241c0,0-0.122,0-0.844,0
	c-0.723,0-1.688,0-1.688,0h-0.844l-0.603-0.241l-1.085-0.603l-0.482-0.241v-0.482v-1.085l-0.482-0.482v-0.723v-1.085v-1.447v-1.085
	v-1.327v-0.723v-1.688v-1.808v-1.085v-1.084v-0.844v-0.603v-1.085v-0.844v-1.808v-2.291v-1.447v-1.605v-0.904v-0.783v-1.207
	c0,0,0.001-0.542,0-0.723c0-0.181,0-1.387,0-1.387v-0.542v-0.783v-1.327v-1.567v-1.387v-1.507v-1.808v-1.869v-1.387v-1.206v-1.808
	v-1.206v-1.628v-1.387v-1.868v-1.763v-2.049v-1.567v-1.266v-1.568v-1.748v-2.006v-1.869v-1.146v-0.964v-1.266v-1.326v-1.266v-1.651
	v-1.266v-0.724v-1.205v-0.664l0.241-1.025l0.481-0.542l0.483-0.422l0.482-0.482l0.602-0.24l0.724-0.603l0.603-0.603l0.482-0.422
	l0.603-0.482l0.965-0.422l0.362-0.482l0.18-1.024l-0.121-2.11v-0.845l-0.06-0.723l0.121-0.843v-0.785l-0.241-1.024v-0.784
	l0.06-0.748l0.061-0.844l0.06-1.085l0.061-0.603l-0.121-1.085l-0.18-0.784l-0.302-0.301l-0.482-0.971l-0.362-0.904l-0.241-0.483
	l-0.421-0.301c0,0-0.182-0.061-0.362-0.181c-0.181-0.12-0.482-0.421-0.482-0.421l-0.482-0.241l-0.423-0.422l-0.542-0.543
	l-0.241-0.361l-0.724-0.724l-0.241-0.362l-0.241-0.362l-0.301-0.362l-0.302-0.976v-0.482v-0.542v-0.723v-0.784v-0.663
	c0,0,0.061-0.543,0-0.724c-0.06-0.181,0-0.964,0-0.964l-0.026-0.301l-0.334-0.121l-0.242-1.699v-0.784c0,0,0.181-0.482,0-0.663
	c-0.181-0.181,0-0.965,0-0.965l-0.081-0.361c0,0,0.04-0.06,0-0.422c-0.039-0.362,0.04-0.301,0-0.783
	c-0.039-0.482,0.078-0.664-0.012-0.844c-0.088-0.181,0.09-0.905,0-1.206c-0.088-0.301-0.021-0.362-0.025-0.784
	c-0.002-0.421-0.039-0.663-0.021-0.964c0.019-0.302-0.005-0.785-0.005-0.785s-0.144-0.301,0-0.542
	c0.144-0.241-0.399-0.966-0.399-0.966v-0.362c0,0-0.301-0.061-0.482-0.241c-0.181-0.181-0.181-0.181-0.181-0.181l-0.242-0.361
	c0,0-0.241-0.06-0.542-0.241c-0.301-0.181-0.542-0.362-0.542-0.362l-0.301-0.242v-0.181l-0.423-0.06l-0.362-0.301l-0.905-0.482
	l-0.663-0.302l-0.301-0.24v-0.181l-0.362-1.031v-0.663v-0.663v-0.422c0,0,0.181-0.181,0-0.302c-0.181-0.121-0.181-0.121-0.181-0.121
	l-0.362-0.18l-0.301-0.241c0,0-0.844-0.121-1.085-0.181c-0.241-0.06-0.904-0.181-0.904-0.181h-0.543h-0.663c0,0-0.121,0-0.663,0
	c-0.543,0-1.085,0-1.085,0h-1.447h-0.542h-1.387h-0.965c0,0,0.603,0-0.301,0c-0.905,0-0.905,0-0.905,0h-0.301l-0.965,0.121v0.482
	l-0.603,0.603v0.542h-0.602l-0.302,0.542v0.241l-0.482,0.362l-0.783,0.663l-0.422,0.904l-0.543,0.422l-0.482,0.482l-0.302,0.181
	l-0.663,0.301l-0.663,0.362c0,0-0.121,0.061-0.362,0.121c-0.241,0.061-0.241,0.061-0.241,0.061s-0.061,0-0.422,0s0.301,0-0.362,0
	s-1.325,0-1.325,0l-0.603,0.181c0,0-0.362,0.06-0.724,0.06s-0.362,0-0.784,0c-0.421,0-1.325,0-1.325,0h-0.664H229h-0.965h-1.085
	h-1.206h-1.929h-0.483h-0.361h-0.301h-0.663c-0.241,0.362-0.121,0.181-0.543,0.603c-0.421,0.421-1.025,0.724-1.025,0.724
	l-0.964,0.663l-0.301,0.482l-0.784,0.663l-0.542,0.422v0.361l-0.302,0.302l-0.362,0.121c0,0-0.241,0.12-0.421,0.421
	c-0.181,0.302-0.06,0.363-0.422,0.664c-0.361,0.301-0.361,0.301-0.361,0.301h-0.302c0,0-0.301,0.121-0.482,0.242
	c-0.181,0.12-0.181,0.12-0.181,0.12s0.783-0.242,0,0c-0.783,0.241-0.12,0.241-0.783,0.241c-0.664,0-0.061,0-0.664,0
	c-0.602,0-0.301,0-0.602,0c-0.302,0-1.025,0-1.025,0h-0.603h-0.965h-1.326h-0.964l-1.809,0.301l-1.568-0.241h-1.326l-1.688-0.121
	c0,0-0.12,0.061-0.542,0.061c-0.422,0-1.446,0.181-1.446,0.181h-0.965l-0.964,0.301l-0.421,0.242c0,0,0.542-0.12,0,0.181
	c-0.542,0.301-0.965,0.603-0.965,0.603l-0.301,0.24c0,0-0.362,0.182-0.604,0.604c-0.241,0.422-0.722,0.663-0.843,0.964
	c-0.121,0.301-0.241,0.301-0.482,0.542c-0.241,0.241-0.242,0.302-0.482,0.543c-0.241,0.24-0.12-0.001-0.603,0.421
	c-0.482,0.422-0.964,0.664-1.145,0.784c-0.181,0.12-0.482,0.301-0.482,0.301s-0.663-0.061-0.724,0.181
	c-0.06,0.241-0.301,0.482-0.301,0.482s0.301,0.181,0,0.724c-0.301,0.542-0.301,0.542-0.301,0.542s-0.122,0.061-0.242,0.302
	c-0.12,0.241-0.482,0.783-0.482,0.783s-0.241,0.422-0.362,0.603c-0.121,0.18,0.362,0.061,0,0.482
	c-0.362,0.421-0.603,0.844-0.603,0.844s0.181,0.061,0,0.362c-0.181,0.301-0.301,0.663-0.301,0.663v0.422
	c0,0-0.301,0.061-0.361,0.542c-0.061,0.482,0.181,0.783,0,1.024c-0.181,0.242,0.161,0.12-0.01,0.543
	c-0.17,0.422-0.044,1.387-0.044,1.387s0.097,0.362-0.045,0.542c-0.142,0.181-0.1,0.421,0,0.724c0.1,0.301-0.624-0.542,0.1,0.301
	c0.723,0.844,0.904,1.024,1.085,1.206c0.181,0.181-0.12-0.181,0.181,0.181c0.301,0.361,0,0.061,0.844,0.603
	c0.844,0.542,1.567,1.567,1.567,1.567l0.543,0.423c0,0,0.12-0.182,0.301,0.12c0.181,0.301,0.301,0.603,0.301,0.603l0.362,0.241
	l0.542,0.482l0.362,0.301c0,0,0-0.06,0.181,0.302c0.181,0.361,0.242,0.361,0.482,0.603c0.24,0.242,0.602,0.422,0.783,0.604
	c0.181,0.18,0.664,0.361,0.664,0.361l0.904,0.422h1.085h1.145l0.724,0.121c0,0-0.482,0,0.784,0.181
	c1.266,0.181,1.688,0.181,1.688,0.181s0.783,0,1.145,0s0.241,0,0.724,0c0.482,0,1.206,0,1.206,0l1.868,0.241
	c0.302,0-0.663,0,0.302,0c0.964,0,1.145,0,1.507,0s0.724,0,0.724,0h0.301c0,0,1.025,0.06,1.266,0.181
	c0.241,0.121,0-0.061,0.542,0.241c0.543,0.301,1.085,0.791,1.085,0.791s0.482,0.242,0.663,0.423
	c0.181,0.181-0.181-0.121,0.181,0.181c0.361,0.301,0.603,0.663,0.603,0.663l0.482,0.542l0.362,0.542l0.482,0.663l0.301,0.724
	l0.121,0.542l0.06,3.121l-0.181,1.989v2.17v1.326l0.121,1.387v1.568c0,0,0.06,0.482,0.06,0.964c0,0.482-0.181,1.688-0.181,1.688
	l0.121,1.808l-0.121,1.146l0.061,1.447v1.628l-0.061,0.663v1.326l0.181,1.628l-0.241,1.748l0.121,1.929l-0.121,1.447l0.181,2.431
	l-0.121,0.964l-0.12,1.206l0.181,0.904l0.06,1.266l0.121,1.507l-0.181,1.809l0.301,1.989v1.508l-0.301,2.29c0,0,0,1.267,0,1.508
	c0,0.24,0.241,2.953,0.241,2.953v1.869v1.447l-0.06,1.87l-0.061,1.93v1.085l-0.241,1.688l0.181,1.025c0,0,0,1.507,0,1.688
	s0,1.93,0,1.93v1.808l-0.121,1.567l0.061,1.386v1.446l-0.121,0.724l-0.061,0.724c0,0.542,0,0.542,0,0.542s0,0.241-0.181,0.603
	c-0.181,0.362-0.301,0.482-0.482,0.784c-0.181,0.301-0.542,0.723-0.542,0.723s0.06-0.06-0.302,0.302s-0.422,0.663-0.723,0.964
	c-0.301,0.302-0.423,0.301-0.724,0.603s-0.302,0.181-0.542,0.362c-0.241,0.181-0.724,0.604-0.724,0.604s-0.241,0.24-0.542,0.481
	c-0.301,0.242,0.061,0.061-0.301,0.242c-0.362,0.181-0.543,0.481-0.784,0.663c-0.241,0.181-0.301,0.241-0.482,0.422
	c-0.181,0.181,0.061-0.241-0.181,0.181c-0.242,0.422-0.423,0.724-0.423,0.724l-0.663,1.085c0,0,0-0.181-0.301,0.181
	c-0.302,0.361-0.603,0.843-0.724,1.024c-0.121,0.181-0.603,0.542-0.603,0.542s-0.241,0.12-0.542,0.362s-0.423,0.242-0.604,0.423
	c-0.18,0.181-0.301-0.181-0.482,0.181c-0.181,0.362,0.121-0.12-0.181,0.362c-0.302,0.482,0.241,0.12-0.302,0.482
	c-0.542,0.362-0.723,0.362-0.904,0.362c-0.18,0-0.18,0-0.18,0l-1.206,1.426l-1.628,1.809c0,0-0.362,0.362-1.266,0.904
	c-0.904,0.542,0.543-0.181-0.904,0.542s0,0-1.447,0.723c-1.447,0.724,0.904,0.724-1.447,0.724s0.181-0.362-2.351,0
	s-6.691,0.362-6.691,0.362s-0.724,0-1.447,0s-3.074,0-3.074,0h-3.075h-2.351h-3.798h-3.617c0,0-1.266,0-2.351,0s-5.064,0-5.064,0
	s3.436,0-1.627,0s-5.063,0-5.063,0s0.362-0.362-1.085-0.181c-1.447,0.181-1.447,0.181-1.447,0.181h-4.34h-1.99c0,0-1.447,0-1.989,0
	s-4.34-0.542-4.34-0.542c-1.085-0.181-3.617-0.181-3.617-0.181s-1.266-0.542-1.809-0.542c-0.543,0-1.627-0.362-1.627-0.362
	c-1.447-0.181,0.181,0.724-1.447-0.181c-1.627-0.904-0.542-0.181-1.627-0.904c-1.085-0.724,0.181,0-1.085-0.724
	s-1.266-0.724-1.266-0.724l-1.266-1.085l-1.085-0.723l-1.266-1.266l-1.085-0.724l-0.904-1.266c0,0,0.904-0.724,0-1.085
	c-0.904-0.362-1.989-1.085-1.989-1.085l-1.447-1.627v-1.628l-1.085-0.904l-1.085-1.266l-1.266-1.266v-1.447v-1.085l-1.447-2.17
	v-1.266l-0.904-3.978v-2.352v-1.627v-1.085v-1.627v-0.904v-2.532v-1.085v-1.085v-3.255v-1.447l0.904-1.989l-0.904-1.809l1.085-3.436
	c0,0,0.181-0.361,1.085-1.627c0.904-1.266,1.627-3.436,1.989-3.979c0.362-0.542,1.085-1.989,1.266-2.532
	c0.181-0.542,0.542-0.904,1.266-2.351c0.724-1.447,0.904-2.351,0.904-2.351l0.904-2.352l1.085-1.808l2.17-2.29
	c0,0,0.845-1.809,1.085-2.291c0.241-0.482,0.603-1.688,0.603-1.688s0.122-0.483,0.242-0.965c0.12-0.482,0.242-0.723,0.723-1.567
	c0.482-0.845,0.724-1.929,0.724-1.929l0.241-0.964c0,0,0-0.483,0.362-0.965c0.362-0.482,0.724-1.567,0.724-1.567
	s0.12-0.362,0.602-1.326c0.483-0.964,0.845-1.809,0.845-1.809l0.482-0.603c0,0,0.241,0.121,0.241-0.964
	c0-1.085,0.12-1.086,0.241-1.688c0.121-0.603,0.964-1.567,1.206-2.291c0.241-0.723,0.242-1.326,0.482-1.929
	c0.241-0.603,0.121-1.084,0.724-1.808c0.603-0.724,0.362-0.121,0.603-0.724c0.241-0.603,0.603-1.446,0.603-1.446l1.327-2.411
	l0.482-1.206l0.121-1.085l0.964-2.143l0.121-1.809l0.241-1.808l0.965-2.171c0,0,0.121-0.241,0.362-0.844
	c0.241-0.603,1.567-2.291,1.567-2.291s0.482-0.844,1.447-1.929c0.965-1.085,0.482-0.483,1.206-1.688
	c0.724-1.206,0.724-1.447,1.085-2.17s0.722-0.965,0.964-1.809c0.242-0.843,0.482-2.049,0.482-2.049l0.604-3.964
	c0,0,0-0.965,0.482-1.567s0.483-0.844,0.604-1.206c0.12-0.361,0.602-1.929,0.602-1.929l0.724-0.965c0,0,0,0,0.603-1.206
	c0.604-1.206,1.206-2.17,1.206-2.17l0.964-1.446c0,0,0.482-0.723,0.482-1.327c0-0.603,1.206-2.291,1.206-2.291l0.964-2.638
	c0,0,0.965-0.724,0.844-1.447c-0.121-0.723-0.482-2.049-0.482-2.049s0-0.121-0.121-1.085c-0.121-0.964,0-0.964-0.241-1.688
	c-0.241-0.724,0-0.964-0.602-1.809c-0.604-0.844-0.604-1.326-0.965-1.447c-0.362-0.121-0.242-0.242-0.724-0.844
	c-0.482-0.603-0.121-0.482-0.723-1.326c-0.603-0.845-1.085-1.327-1.688-2.291c-0.603-0.964-1.447-2.291-1.447-2.291l-0.482-1.688
	c0,0-0.965-0.24-0.965-0.723c0-0.482,0-0.482,0-0.482l-0.603-0.964l-1.085-1.085c0,0,0.122-0.603-0.481-1.085
	c-0.603-0.483-0.603-0.483-0.603-0.483l-1.205-1.205c0,0,1.084,0-0.724-0.482c-1.809-0.482-1.568-0.482-2.412-0.724
	c-0.843-0.241-1.567-0.844-2.17-0.844s-3.617-0.766-3.617-0.766h-3.014c0,0-2.292,0.077-2.773,0c-0.482-0.077-3.858,0-3.858,0
	s-0.723,0.008-2.532-0.035c-1.808-0.042-2.894,0-2.894,0l-3.014-0.019c0,0-0.844,0.265-1.809,0c-0.964-0.265-3.375,0-3.375,0
	s-1.929,0.149-2.291-0.118c-0.361-0.267-2.894,0-2.894,0l-1.567-0.119h-3.617h-3.617h-2.894h-1.809h-1.928h-3.376h-2.652
	c0,0-1.567-0.333-1.929,0c-0.362,0.334,0.362-0.63-1.93-0.148c-2.291,0.482-0.844,0.482-2.291,0.482s-0.843,0-2.773,0
	c-1.929,0-2.05,0.24-2.652,0c-0.603-0.241-0.843-0.637-1.326-0.62c-0.482,0.017,1.446,0.138-0.482,0.017
	c-1.928-0.121-1.688,0.206-2.894-0.018c-1.206-0.223-0.963,0.204-1.929-0.01c-0.965-0.213,1.687-0.213-0.965-0.213s-1.084,0-2.652,0
	c-1.567,0-2.894,0.362-3.617,0c-0.723-0.362-0.723-0.604-2.17-0.604c-1.446,0-2.412,0-2.412,0s0.001,0-0.843,0s-0.122,0-1.688,0
	c-1.566,0-2.17,0-2.17,0s0,0-1.447,0c-1.446,0-2.652,0-2.652,0s0.12,0-1.326,0c-1.447,0-2.652,0-2.652,0h-3.134l-0.965,0.909
	c0,0-0.482,0-0.964,0.12c-0.482,0.121-1.206,0.483-1.688,0.724c-0.482,0.241-1.326,0.482-1.326,0.482L32.84,50.49
	c0,0,0,0.483-0.603,0.604c-0.602,0.12-0.602,0.12-0.602,0.12l-0.604,0.482c0,0,0.843,0.241,0,0.724
	c-0.844,0.482-0.844,0.482-0.844,0.482s1.085-0.964,0,0c-1.085,0.964-1.085,0.964-1.085,0.964s-0.603,0.121-0.844,0.723
	c-0.241,0.603,0.362-0.242-0.241,0.603c-0.604,0.844-0.604,0.844-0.604,0.844v0.362c0,0-0.241-0.483-0.723,0.362
	c-0.481,0.844-1.085,1.446-1.085,1.446l-0.724,0.844c0,0,0.603-0.362,0,0.603c-0.603,0.964-0.362,0.24-0.603,0.964
	c-0.241,0.724,0.603,0.482,0,1.206c-0.603,0.724-0.724,1.326-0.724,1.326l0.482,0.604l0.844,0.603l0.844,0.362l0.844,0.241h0.964
	l0.724-0.241h0.964h0.724c0,0,0,0,0.844,0s2.291,0,2.291,0c1.085,0,3.255,0,3.255,0l0.723-0.241l2.171-0.361h1.084h0.964h1.206
	l1.688,0.12l1.206,0.121c1.928,0,0.963-0.241,1.928,0c0.965,0.241,0.965,0.241,0.965,0.241s2.05,0.241,2.17,0.603
	c0.12,0.361,1.085,1.326,1.085,1.326l0.361,0.603l1.085,1.326l0.481,0.603c0,0,0.482,0.482,0.724,0.844s-0.361-0.241,0.242,0.362
	c0.603,0.602,1.085,0.844,1.447,1.446c0.361,0.603,0.843,1.085,0.843,1.085c0.604,0.602,0.965,1.084,0.965,1.084
	s-0.363-0.724,0.844,0.844c1.206,1.567,1.688,2.05,1.688,2.05c0.482,1.326,1.327,1.446,1.446,2.29
	c0.12,0.844,0.12,0.965,0.241,1.568c0.121,0.603,0.482,1.688,0.482,1.688c0.241,0.724,0.361,1.326,0.482,1.808
	c0.121,0.483-0.241-1.446,0.121,0.483c0.361,1.929,0.603,2.411,0.603,2.894c0,0.482,0-1.567,0,0.482s0,2.049,0,2.049
	s0.12-0.603,0,0.482c-0.12,1.085-0.724,2.17-0.724,2.17s0.362-0.482-0.12,0.965s-1.206,2.291-1.206,2.291l-0.241,1.567
	c0,0-0.241,0-0.241,0.723c0,0.724-0.603,1.809-0.603,1.809l-0.603,0.844c0,0,0,0.121-0.121,0.724
	c-0.121,0.603-0.724,1.206-0.724,1.206l-0.844,2.291l-0.603,0.362c0,0-0.482,0.241-0.724,0.603
	c-0.241,0.361,0.121-0.241-0.241,0.361c-0.362,0.603-0.12,1.326-0.362,2.05c-0.242,0.723-0.844,1.085-0.844,1.085
	s0.24,0.603-0.121,1.206c-0.362,0.603-0.844,1.446-0.844,1.446s-0.483,1.447-0.483,1.809c0,0.361,0,0.361,0,0.361
	s-0.964,0.844-0.964,1.206s-0.604,0.483-0.604,0.483l-0.723,0.964l-0.12,1.327c0,0-0.724,1.084-0.845,1.567
	c-0.121,0.482-0.24,0.724-0.24,1.085c0,0.361-0.482,1.206-0.724,1.567c-0.242,0.362-0.242,0.362-0.242,0.362l0,0l-0.271,2.23
	l-0.271,0.904c0,0-0.227,0.814-0.272,0.995s-0.09,0.633-0.181,1.04c-0.09,0.407-0.045,0.588-0.136,0.904
	c-0.09,0.316,0.09,0-0.181,0.633s-0.226,0.633-0.452,1.221c-0.226,0.587-0.452,1.13-0.497,1.266
	c-0.045,0.136-0.091,0.407-0.226,0.859c-0.136,0.453-0.362,0.724-0.362,0.905c0,0.181,0,0.181-0.452,1.312
	c-0.452,1.13-0.316,1.084-0.724,1.943c-0.407,0.859-0.497,1.267-0.588,1.628c-0.09,0.361-0.181,0.904-0.316,1.538
	c-0.135,0.633-0.226,1.492-0.316,1.943c-0.09,0.453-0.226,0.633-0.452,1.176c-0.227,0.542-0.181,0.136-0.362,1.13
	c-0.181,0.995-0.362,0.814-0.362,1.356s0,0.859-0.09,1.175c-0.091,0.316-0.226,0.995-0.362,1.356s-0.226,0.362-0.271,0.678
	s0.271,0-0.09,0.769c-0.362,0.768-0.634,0.904-0.724,1.311c-0.091,0.407,0.226-0.09-0.316,1.176
	c-0.543,1.266-0.617,2.049-0.617,2.049s-0.122,0.242-0.242,0.392c-0.12,0.15-0.12,0.181-0.21,0.362
	c-0.09,0.181-0.362,0.572-0.362,0.572s-0.061,0.091-0.241,0.453s-0.422,0.753-0.633,1.175c-0.21,0.422-0.362,0.572-0.421,0.874
	c-0.061,0.302,0.03,0.15-0.181,0.693s-0.121,0.333-0.482,1.236c-0.361,0.904-0.512,0.995-0.784,1.809
	c-0.271,0.813-0.181,1.356-0.362,1.718c-0.181,0.362-0.15,0.271-0.361,0.843c-0.211,0.573-0.211,0.603-0.302,1.025
	c-0.09,0.422,0,0.362-0.181,0.753c-0.181,0.392-0.151,0.241-0.332,0.874c-0.181,0.633-0.362,0.904-0.362,0.904
	s0.03-0.181-0.211,0.452c-0.241,0.633-0.21,0.723-0.512,1.146c-0.302,0.422-0.181,0.332-0.633,1.056
	c-0.452,0.723-0.36,0.542-0.602,0.964c-0.242,0.421-0.12,0.302-0.543,0.844c-0.422,0.542-0.512,0.452-0.633,0.693
	c-0.121,0.241-0.181,0.241-0.392,0.512c-0.211,0.271-0.301,0.362-0.392,0.513c-0.09,0.151-0.061,0.031-0.271,0.362
	c-0.211,0.332-0.573,0.632-0.693,0.844s-0.121,0.211-0.121,0.211l-0.09,3.345l-1.085,2.17c0,0,0.091,0.633,0,1.085
	c-0.09,0.452-0.271,0.995-0.542,1.808c-0.271,0.814-0.814,1.447-0.814,2.261c0,0.814-0.181,1.718-0.181,1.718
	s-0.904,0.542-1.447,1.808c-0.542,1.266-1.447,2.894-1.537,3.255c-0.091,0.362-0.362,1.266-0.362,1.266s-0.301,0.271-0.512,0.995
	c-0.211,0.724-0.844,1.175-0.844,1.537s0,1.447,0,1.447s-0.724,0.542-1.176,1.175c-0.452,0.633-0.723,1.446-0.904,1.989
	c-0.181,0.542-0.181,0.542-0.181,0.542s0.452-0.633,0,0s-1.989,3.165-1.989,3.165s0,0.271-0.542,1.537
	c-0.543,1.266-0.905,1.176-1.266,2.08c-0.361,0.904-0.452,0.633-0.542,1.809s-0.452,1.356-0.452,2.351c0,0.994,0,1.718,0,1.718v2.02
	c0,0,0.301,0.965,0,1.266c-0.301,0.302-0.301,0.482-0.301,1.085c0,0.603,0,0.663,0,0.964c0,0.301,0.061-0.422,0,0.301
	c-0.061,0.724-0.181,1.024-0.301,1.507c-0.121,0.483-0.301,1.025-0.301,1.206c0,0.181,0,0.904,0,0.904s0.24,1.206,0,1.627
	c-0.241,0.422-0.362,1.085-0.362,1.387c0,0.301,0.12,0.421,0,0.964c-0.12,0.543,0,1.206,0,1.206s0.133-0.303-0.054,1.024
	c-0.187,1.326-0.549,2.05-0.549,2.412c0,0.361,0,0.301,0,1.145s0,1.145,0,1.507s0-0.181,0,0.844s0,1.628,0,1.99
	c0,0.361-0.181-0.302,0,0.361c0.181,0.664,0.301,1.085,0.422,1.809c0.121,0.723,0.12,0.603,0.181,1.025
	c0.06,0.421,0.06,0.542,0.06,1.266c0,0.724,0,0.242,0,0.724c0,0.481,0.061,1.205,0.061,1.205l0.241,1.025c0,0-0.06,0.302,0.06,0.664
	s-0.06,0.061,0.12,0.362c0.181,0.301,0.422,1.085,0.422,1.085s0.12,0.482,0.12,0.663c0,0.181-0.061,0.543,0,0.784
	c0.061,0.241,0.303,0.724,0.423,0.965c0.12,0.241,0-0.422,0.12,0.241c0.121,0.663,0.121,1.085,0.121,1.085l1.326,1.808
	c0,0,0,0.724,0.723,1.266c0.724,0.542,0.724,0.542,0.724,0.542l0.361,1.447l0.905,1.085l1.084,0.724c0,0,0.724,0.904,1.447,1.266
	c0.723,0.362,1.627,0.724,2.17,1.266c0.542,0.542,1.809,1.808,1.809,1.808l0.723,0.905c0,0-1.808-0.905,1.447,0.904
	c3.255,1.808,4.16,1.808,4.16,1.808h2.532l3.437,0.362c0,0,3.617,0,4.702,0c1.085,0,1.266,0,2.712,0c1.447,0,4.703,0,4.703,0h5.606
	c0,0,1.628,0,2.713,0s0.361,0,2.894,0s4.521-0.362,4.521-0.362s0.181-0.181,2.351-0.181s4.341,0,4.341,0s-0.181,0,2.17,0
	c2.351,0,3.617,0,3.617,0h3.979l3.978,0.542c0,0,0.905,0,2.352,0s1.085-0.181,2.713,0c1.627,0.181,2.532,0.181,2.532,0.181
	l3.255,0.181l1.085,0.452l2.441-0.271c0,0,0.543,0,2.261,0c1.718,0,3.888,0,3.888,0h1.99h2.984c0,0,0.271-0.181,0.994,0
	c0.724,0.181,0.995,0.181,2.08,0.181c1.085,0,1.085,0,1.99,0c0.904,0,2.803,0,3.254,0c0.453,0,2.623,0,2.623,0s1.99,0,2.261,0
	s2.351,0,2.351,0h1.718h1.628h1.627h2.713c0,0-1.627,0,0.542,0s2.713,0,2.713,0h3.165c0,0,0.542-0.091,2.17-0.091
	c1.627,0,2.894,0,2.894,0h1.718h3.437h1.085c0,0,1.718,0,2.08,0c0.362,0,0.633,0.091,1.537,0.091c0.904,0,1.99,0,2.261,0
	c0.271,0,0.724,0,1.175,0c0.453,0,0.995,0,1.537,0c0.543,0,1.266-0.181,1.718-0.181c0.453,0,0.995,0,2.261,0s0.813,0,1.808,0
	c0.995,0,1.718,0,1.99,0c0.271,0,1.356,0,2.894,0s1.989,0.181,1.989,0.181h3.165h1.537c0,0-0.362,0,1.266,0c1.628,0,2.441,0,2.441,0
	l1.176,0.452l2.712,0.573h3.376h1.205c1.93,1.446,2.894,2.894,2.894,2.894l2.171,1.688l1.206,1.688c0,0,0.241-0.24,0.964,0.965
	c0.724,1.206,2.412,3.135,2.412,3.135l1.688,1.93c0,0,1.688,1.446,2.171,2.411c0.482,0.964,0.482,0.722,1.446,2.41
	c0.964,1.689,0.964,1.929,1.447,2.895c0.482,0.964,0.241,1.929,0.482,2.653c0.24,0.722-0.242,0.482,0.481,1.928
	c0.724,1.447,0.241-0.723,0.724,1.447c0.482,2.17,0.723,3.375,0.723,3.375s0,1.688,0,3.135s0,1.447,0,1.447l-0.421,2.954v2.712
	l-0.362,2.531l0.181,3.799l0.724,2.713v2.351c0,0,0.181,1.809-0.181,2.532c-0.362,0.723-0.362,1.266-0.362,2.532
	c0,1.266,0,2.712,0,2.712s0,0,0,2.713s-0.904,5.063-0.904,5.063s0,3.075,0,3.979c0,0.905,0.724,1.629,0.724,2.895s0,4.159,0,5.425
	s0.181,1.628,0.362,2.352c0.181,0.723,0.181,3.436,0.181,4.341c0,0.903,0,2.169,0,2.893s0,0.362,0,2.895c0,2.531,0,3.616,0,3.616
	s0-1.266,0,2.351c0,3.618,0,4.16,0,5.063c0,0.905,0,2.713,0,3.256c0,0.542,0,0,0,1.989s-0.904,2.171-0.724,4.34
	c0.181,2.171,0.362,5.063,0.362,5.063l0.181,1.81c0,0,0,1.266,0,3.617c0,2.351,0-0.361,0,2.351c0,2.713,0.181,1.266,0,2.713
	c-0.181,1.447-0.181,2.893-0.181,2.893s-0.362,2.171-0.362,2.895s0.543,4.16,0.543,4.16v4.159l-0.362,3.797v1.38v4.95v3.437
	c0,0,0,0.724,0,1.266c0,0.543,0,1.809,0,1.809l0.362,1.809l0.724,1.266l0.723,1.085c0,0,0.543,0.362,0.904,1.086
	c0.362,0.722,0.724,1.445,0.905,1.989c0.181,0.542,0.904,2.169,0.904,2.169c1.084,1.809,1.627,2.713,1.627,2.713
	s0.723,0.905,1.266,1.809c0.542,0.905,0.723,1.266,1.266,2.351c0.542,1.086,0.542,1.086,0.542,1.086l0.542,0.903v1.447h0.724
	l1.085,2.713c0,0,0.542,1.085,0.542,1.809s0,2.351,0.181,3.074c0.181,0.724,0.362,3.074,0.362,3.074s-0.181,0.542,0,2.171
	c0.181,1.627,0.181,2.713,0.181,3.616c0,0.904-0.181,2.171-0.181,3.074c0,0.904,0,2.533,0,3.437c0,0.904-0.181,1.447,0,2.713
	c0.181,1.266,0.181,3.798,0.181,3.798l0.181,1.085c0,0,0,0.181,0,1.808c0,1.629,0,1.629,0,1.629l-0.602,5.728l0.241,6.029
	l-0.723,4.821c0,0,0.723,1.207,0.723,2.412s0-1.689,0,1.205c0,2.893,0,3.856,0,4.822c0,0.965-0.243,3.497-0.243,3.497v3.134
	l0.241,1.81v2.532c0,0,0,1.808,0,2.531s-0.241,1.687-0.241,2.772c0,1.085,0,2.17,0,2.17s-0.482,0,0,1.808
	c0.483,1.809,0.241,2.532,0.241,3.618c0,1.085-0.121,0.362,0,1.567c0.121,1.206-0.121-0.119,0.362,2.171s0.121,1.93,0.121,3.256
	c0,1.325-0.241,0.722-0.241,2.29c0,1.566,0,1.806,0,2.29c0,0.483,0.241-0.361,0,1.207c-0.242,1.566-0.483,1.445-0.483,2.53
	c0,1.086,0,0.723,0,1.688s0,2.654,0,2.654s-0.121,1.203-0.121,1.686c0,0.483-0.24,1.447-0.24,1.809c0,0.362,0-0.361,0,0.965
	c0,1.328,0.121,2.895,0.121,2.895s-0.242,0.724,0.24,1.809c0.483,1.085,0.483,2.773,0.483,2.773s-0.843-0.482,0,0.724
	c0.844,1.205,1.085,1.807,1.688,3.133c0.602,1.326-0.242,0.724,0.602,1.326c0.844,0.604-0.24-0.359,0.844,0.604
	c1.085,0.964,1.085,0.964,1.085,0.964s-0.362-0.24,0.723,0.844c1.085,1.085-0.603-0.24,1.085,1.085
	c1.688,1.325,0.965,0.603,1.688,1.325c0.724,0.724-0.844-0.845,0.724,0.724c1.568,1.569,0.964,1.087,2.531,1.931
	c1.568,0.843,2.653,0.843,2.653,0.843s0.363,0.603,1.93,0.845c1.566,0.241,4.943,0.482,4.943,0.482s2.411-0.12,3.616,0
	c1.206,0.12,4.1,0,4.1,0l2.29,0.054h3.618h2.652h2.653h2.652h1.567h3.134h2.17h1.93h1.447h2.107h1.63h3.014h1.689h0.964h1.205h1.206
	h1.688h2.169h1.328h1.566h1.326h2.049h2.292h1.687h0.845h1.325h1.447h1.809h1.688h1.566h2.05c0.965-0.295,0.965-0.295,0.965-0.295
	l1.447-1.206c0,0-0.001-0.482,0.964-0.965c0.964-0.481,2.17-1.326,2.17-1.326l1.327-0.964l0.964-1.207l1.447-1.084
	c0.602-0.482,0.604-1.325,1.447-1.93c0.843-0.603,0.843-0.603,0.843-0.603l1.567-2.049l0.845-2.05l0.12-1.688l-0.12-1.697
	l0.24-1.688v-2.049l-0.24-1.326l-0.122-0.965v-1.809v-2.29c0,0,0-1.084,0-1.566c0-0.483,0-3.256,0-3.256v-0.846v-1.928v-0.844
	l-0.24-2.05v-2.05v-1.688v-1.446l0.482-1.931v-2.409l-0.242-2.654v-1.566v-2.895l-0.24-2.531l-0.241-2.532l0.481-4.221l0.242-3.375
	l-0.12-2.531l-0.241-2.262l-0.121-3.376v-3.134l0.482-1.93l-0.242-1.566l0.483-3.136c0,0-0.121-1.327-0.241-1.809
	c-0.12-0.482-0.12-3.256-0.12-3.256v-1.566v-2.171v-0.964v-1.567l0.12-1.928l0.12-1.931l-0.362-1.085v-2.049v-2.05v-2.652v-2.773
	v-2.29v-1.568l-0.24-1.446l-0.12-2.894v-3.979l0.482-2.772v-2.292v-1.929l1.447-3.255l1.325-1.326l0.845-0.602l2.049-1.809
	c0,0,0.481-1.327,0.723-1.688c0.242-0.362,1.085-1.809,1.085-1.809s0.362-0.965,0.724-1.327c0.362-0.361,0.845-0.842,1.086-1.325
	c0.24-0.483,0.483-0.967,0.964-1.207c0.482-0.24,0.845-0.964,1.447-1.566c0.604-0.604,1.205-1.567,1.205-1.567
	s0.241-0.121,0.361-0.482c0.122-0.362,0.362-0.483,0.604-1.447c0.241-0.964,0.843-2.171,0.843-2.171v-1.566l0.242-2.17l-0.12-3.014
	L341.366,415.192z"/>
</svg>
